PathFileType	4	(X/Y/Z)	D:\TRACE\v60_Jaco2_6-2-23\JustArmDRS_Motion3_3-v60.trc
DataRate	CameraRate	NumFrames	NumMarkers	Units	OrigDataRate	OrigDataStartFrame	OrigNumFrames
100.00	100.00	      41	9	mm	100.00	1751	      7000
Frame#	Time	front left toe			Front right toe			aft left toe			aft right toe			Arm			FL body			FR body			AL Body			AR Body			
		X1	Y1	Z1	X2	Y2	Z2	X3	Y3	Z3	X4	Y4	Z4	X5	Y5	Z5	X6	Y6	Z6	X7	Y7	Z7	X8	Y8	Z8	X9	Y9	Z9	

1751	17.500	-196.00995	17.48654	-236.73293	202.56281	16.16029	-170.97975	-285.42487	21.81508	401.36606	124.20583	17.97270	416.79346	31.44038	1166.85388	-569.78656	-52.56052	583.36633	-349.17407	104.81542	582.21136	-327.73279	-171.64520	579.93195	588.05481	-21.88800	570.36279	608.08154	
1752	17.510	-196.12918	17.52889	-236.71132	202.54623	16.19316	-170.95822	-285.70233	21.72134	401.55237	124.10880	17.91714	416.76495	31.54512	1166.65979	-569.80481	-52.62638	583.36023	-349.15729	104.78097	582.07611	-327.72385	-171.64787	579.88263	588.08215	-21.83442	570.32495	608.12805	
1753	17.520	-196.26398	17.60708	-236.68288	202.50299	16.23084	-170.92976	-285.80811	21.73724	401.49036	124.08285	17.90710	416.81458	31.69928	1166.32788	-569.74231	-52.67001	583.27118	-349.14285	104.66954	581.99109	-327.71109	-171.71396	579.88440	588.09045	-21.91738	570.29938	608.20422	
1754	17.530	-196.32878	17.59293	-236.70197	202.45869	16.19397	-170.93846	-285.58377	21.79143	401.35144	124.08347	17.87194	416.79123	31.60670	1166.15515	-569.82269	-52.67771	583.22473	-349.08731	104.62369	581.91888	-327.70044	-171.71156	579.85492	588.11957	-21.88393	570.25604	608.22961	
1755	17.540	-196.46411	17.66667	-236.72835	202.35970	16.18269	-170.97101	-286.28210	22.56340	400.28061	124.08503	17.93411	416.83719	31.54450	1166.04553	-569.84656	-52.63342	583.14960	-349.05762	104.57727	581.81573	-327.70401	-171.82019	579.89587	588.16827	-22.01119	570.27295	608.28717	
1756	17.550	-196.57417	17.68726	-236.74361	202.30226	16.18078	-170.96466	-286.25784	22.54283	400.30219	123.96040	17.84846	416.78796	31.45551	1166.07458	-569.88306	-52.64956	583.11603	-349.07446	104.56560	581.73346	-327.68484	-171.88858	579.89600	588.16162	-22.07718	570.28412	608.31256	
1757	17.560	-196.65996	17.69348	-236.77393	202.36330	16.25050	-170.89206	-286.26855	22.49519	400.36295	123.95253	17.90154	416.81760	31.50105	1166.01697	-569.90540	-52.60873	583.02148	-349.04108	104.57849	581.66498	-327.64261	-171.95596	579.96252	588.19507	-22.14036	570.32080	608.34546	
1758	17.570	-196.72487	17.99205	-236.99625	202.04413	16.21826	-170.96588	-286.32779	22.49526	400.32516	123.62836	17.82677	416.75461	31.47211	1166.00000	-569.93933	-52.53536	582.88062	-349.04819	104.51242	581.60455	-327.63046	-171.87871	579.97699	588.19830	-22.19196	570.34174	608.33325	
1759	17.580	-196.78468	18.00667	-237.00688	202.01556	16.15107	-170.96938	-286.44244	21.95065	400.98798	123.44525	17.78716	416.70486	31.54530	1165.85779	-569.97583	-52.52821	582.75574	-349.05927	104.46286	581.56110	-327.59106	-172.14992	580.01355	588.20416	-22.24148	570.33240	608.34058	
1760	17.590	-196.83197	17.96830	-237.01863	201.95590	16.17344	-170.92181	-286.26007	21.70730	401.41483	123.31340	17.81301	416.67221	31.58729	1165.78796	-570.11438	-52.55885	582.62384	-349.08530	104.46139	581.41748	-327.51636	-171.98215	580.04218	588.20020	-22.22483	570.33545	608.35547	
1761	17.600	-196.88977	17.91284	-237.06056	201.85886	16.16804	-170.96939	-286.56314	21.98056	400.92114	123.18668	17.86338	416.66800	31.66306	1165.59619	-570.18817	-52.61095	582.50543	-349.10513	104.54687	581.25818	-327.44052	-172.07327	580.07800	588.17133	-22.30056	570.35065	608.35822	
1762	17.610	-196.93781	17.87779	-237.04712	201.87634	16.14190	-170.92183	-286.55591	21.98360	400.94327	123.19003	17.94587	416.68893	31.82694	1165.44678	-570.27826	-52.67351	582.43719	-349.14597	104.44626	581.12598	-327.40097	-172.10544	580.05975	588.17389	-22.29495	570.37836	608.28381	
1763	17.620	-196.96504	17.83436	-237.04343	201.85027	16.15307	-170.91644	-286.52054	21.83921	401.32220	123.10098	17.99752	416.69345	31.97725	1165.26160	-570.40918	-52.74381	582.32739	-349.19412	104.42494	581.03168	-327.42114	-172.26814	580.11377	588.12256	-22.40183	570.40991	608.29834	
1764	17.630	-197.03355	17.79282	-237.07458	201.60149	16.06621	-171.01476	-286.65747	21.86919	401.32785	122.98384	18.05598	416.64908	31.97253	1165.17212	-570.51257	-52.85820	582.32721	-349.18399	104.09111	581.00397	-327.32242	-172.76361	580.18127	588.10602	-22.53820	570.43854	608.26398	
1765	17.640	-197.12166	17.76477	-237.10022	201.40234	15.98525	-171.11066	-286.74261	21.87950	401.31024	122.89942	18.24662	416.64774	31.81754	1165.12439	-570.59729	-52.97375	582.33923	-349.24066	104.30400	580.97479	-327.43372	-172.86659	580.18573	588.06085	-22.68683	570.49683	608.22327	
1766	17.650	-197.23761	17.77105	-237.15416	201.25433	15.98826	-171.11465	-286.84225	21.95429	401.28528	122.74489	18.37509	416.63129	31.81240	1164.98157	-570.80743	-53.04272	582.33569	-349.17950	103.99512	581.02264	-327.30032	-172.99860	580.24805	588.04303	-22.75553	570.55280	608.19568	
1767	17.660	-197.33810	17.74982	-237.20001	201.22011	16.06423	-171.14098	-286.96133	22.08078	401.25812	122.54279	18.46486	416.56171	31.82510	1164.77576	-570.97583	-53.14404	582.38281	-349.17810	103.94110	581.04022	-327.31967	-173.12514	580.29999	587.96271	-22.88089	570.59735	608.17987	
1768	17.670	-197.39380	17.40607	-236.99544	201.06456	15.99739	-171.19539	-287.04095	21.96925	401.18762	122.49781	18.53809	416.58258	31.13107	1164.36511	-571.60583	-53.22380	582.37927	-349.17612	103.93893	580.95959	-327.33612	-173.27673	580.42792	587.94098	-23.11784	570.68286	608.13123	
1769	17.680	-197.58093	17.32723	-236.99959	200.76295	15.90422	-171.28235	-287.25284	22.22282	401.26501	122.37605	18.55627	416.53983	30.55512	1164.06787	-572.12616	-53.35022	582.31036	-349.25580	103.76877	580.88068	-327.35571	-173.42180	580.52545	587.90759	-23.50979	570.78967	608.11798	
1770	17.690	-197.74455	17.25822	-237.02925	200.56429	15.76499	-171.33556	-287.35577	22.28484	401.21637	122.32371	18.58446	416.56079	30.68885	1163.53284	-572.89771	-53.53278	582.18512	-349.29272	103.56667	580.79242	-327.43307	-173.57097	580.61188	587.79620	-23.66735	570.90613	608.05219	
1771	17.700	-197.94699	16.97266	-237.16843	200.44525	15.75515	-171.37619	-287.52402	22.41669	401.17322	122.13379	18.62459	416.54742	30.47984	1162.57556	-573.85114	-53.38947	581.76221	-349.03973	103.53506	580.71576	-327.44843	-173.80530	580.80530	587.71771	-23.85635	571.08484	608.03241	
1772	17.710	-198.03249	16.89523	-237.18217	200.31664	15.63574	-171.41878	-287.71561	22.54670	401.16507	122.07478	18.69381	416.52264	30.36879	1161.94226	-574.97235	-53.70816	581.79810	-349.32092	103.37907	580.63806	-327.50055	-173.91029	580.97650	587.62866	-24.07900	571.24414	607.92352	
1773	17.720	-198.31792	17.04779	-237.01143	200.15471	15.58333	-171.48589	-287.89236	22.72026	401.11429	122.02074	18.77921	416.47540	30.54960	1160.88953	-575.91333	-53.80154	581.62463	-349.36783	103.16818	580.45203	-327.64468	-174.09540	581.10303	587.49445	-24.15986	571.33435	607.84058	
1774	17.730	-198.50208	16.95321	-237.12151	200.03436	15.50463	-171.55768	-287.67847	22.84498	400.96875	121.99241	18.78883	416.50775	29.91129	1160.10120	-577.41644	-54.10538	581.44940	-349.54404	102.88380	580.23505	-327.82211	-174.09938	581.13483	587.47095	-24.30690	571.42584	607.75610	
1775	17.740	-198.63568	16.84875	-237.18831	200.00464	15.42163	-171.54854	-287.74750	22.92533	400.93289	121.85924	18.91700	416.44165	29.68586	1158.99683	-578.54620	-54.22451	581.32983	-349.65231	102.72243	580.14056	-327.93353	-174.17136	581.19183	587.35712	-24.44526	571.59778	607.62024	
1776	17.750	-198.71518	16.76497	-237.27008	199.96912	15.39956	-171.55179	-287.82123	23.02291	400.90854	121.89646	19.24365	416.49039	29.38062	1158.08618	-580.22449	-53.97733	580.99890	-349.52817	102.53702	579.97595	-328.09628	-174.39180	581.53357	587.19232	-24.71343	571.85040	607.47607	
1777	17.760	-198.81946	16.68326	-237.33954	199.93393	15.39208	-171.54526	-287.89743	23.12074	400.81430	121.79752	19.54161	416.41663	29.00974	1157.11707	-581.58978	-53.99554	580.61511	-349.62036	102.35663	579.89941	-328.17859	-174.61217	581.93182	586.98413	-24.94066	572.27515	607.33557	
1778	17.770	-198.86732	16.57526	-237.42053	199.89748	15.35226	-171.56146	-287.99869	23.26016	400.73224	121.81904	19.89451	416.42490	28.87234	1156.19812	-583.00629	-54.13016	580.39844	-349.66769	102.24441	579.74768	-328.23703	-174.61185	582.26782	586.78278	-24.72288	572.55835	607.12885	
1779	17.780	-199.01323	16.55578	-237.47675	199.80756	15.28712	-171.58594	-288.18301	23.47193	400.62640	121.52969	20.15838	416.34518	28.92978	1154.90088	-584.73370	-54.31990	580.26331	-349.77310	102.12534	579.54681	-328.38794	-174.64053	582.59180	586.69061	-24.71406	572.84204	607.05127	
1780	17.790	-199.24876	16.46389	-237.49443	199.67705	15.21099	-171.56323	-288.46060	23.76115	400.59601	120.95255	20.23291	416.14816	28.96788	1153.87524	-586.17224	-54.80869	580.51599	-350.31931	102.10978	579.13055	-328.40714	-175.22243	582.77350	586.60095	-24.88155	572.99182	606.93665	
1781	17.800	-199.40498	16.13191	-237.12924	199.43936	15.04859	-171.67711	-288.61026	23.94023	400.56018	120.63013	20.32157	416.03699	28.44826	1152.80945	-587.86053	-54.73948	580.01093	-350.17050	102.11069	578.74805	-328.49597	-175.56956	583.01361	586.47168	-25.15418	573.35895	606.78619	
1782	17.810	-199.50993	15.98781	-237.32417	199.35922	14.95587	-171.73940	-288.75620	24.11239	400.50961	120.32880	20.33125	415.95282	28.51534	1151.60571	-589.47015	-55.25548	579.95056	-350.57373	101.93951	578.54932	-328.69547	-175.84903	583.39606	586.29651	-25.36074	573.73584	606.62195	
1783	17.820	-199.69234	15.96242	-237.72231	199.14821	14.81741	-171.83397	-289.36850	24.22294	400.51208	120.21698	20.37096	415.83569	28.59375	1150.61230	-590.84906	-55.59850	579.64398	-350.75012	101.69269	578.39594	-328.89273	-175.86668	583.68506	586.06146	-25.51689	574.02472	606.55206	
1784	17.830	-199.78365	15.72844	-237.82617	199.12459	14.75512	-171.86252	-289.36789	24.33214	400.44717	120.18284	20.66329	415.73434	28.87275	1149.35669	-592.56897	-55.74305	579.34790	-350.92657	101.35699	578.25256	-329.10818	-175.95128	583.98120	585.91193	-25.66359	574.36609	606.39832	
1785	17.840	-200.14865	15.50503	-238.07266	198.76151	14.59969	-171.94321	-289.55472	24.57874	400.31287	120.05688	20.91624	415.62958	28.71786	1148.15918	-593.98987	-55.77647	579.13721	-351.13284	101.25163	578.07300	-329.33417	-176.01239	584.28412	585.88043	-25.92706	574.80115	606.23401	
1786	17.850	-200.21815	15.42327	-238.03651	198.46919	14.35286	-172.13173	-289.57791	24.76710	400.27722	119.99649	21.12425	415.61472	28.90389	1147.19531	-595.27942	-56.07602	578.89685	-351.37384	100.86974	577.88440	-329.62680	-176.17743	584.61084	585.74298	-26.12397	575.06885	606.06787	
1787	17.860	-200.45790	15.33610	-238.09274	198.38757	14.23253	-172.13045	-289.81671	25.22461	400.10263	119.92056	21.38718	415.52838	29.24822	1145.63831	-596.98273	-55.77079	578.38220	-351.05078	100.75285	577.61597	-329.79651	-176.06453	585.09662	585.63782	-26.37583	575.42706	605.80145	
1788	17.870	-200.56889	15.25161	-238.16676	198.24217	14.14660	-172.18011	-289.87177	25.52650	399.97842	119.85775	21.83237	415.31534	29.08690	1144.80859	-598.40021	-55.94271	578.29236	-351.34427	100.52479	577.23181	-329.93155	-176.09863	585.37842	585.61090	-26.39816	575.73560	605.57404	
1789	17.880	-200.65623	15.12304	-238.21869	198.11406	14.04996	-172.25562	-289.60315	25.81615	399.80347	119.91040	22.14225	415.24808	29.15939	1143.62939	-599.60339	-56.12549	577.93579	-351.61563	100.47591	576.91168	-330.00681	-176.29485	585.77570	585.47388	-26.29000	575.98120	605.49652	
1790	17.890	-200.70648	14.89644	-238.31203	198.09180	14.04081	-172.25662	-289.74951	26.05767	399.78049	119.63766	22.33419	415.15616	29.19445	1142.71973	-601.12292	-56.41169	577.54333	-351.72986	100.37691	576.69495	-330.24316	-176.53723	586.15790	585.27167	-26.61374	576.42950	605.33600	
1791	17.900	-200.85167	14.48726	-238.20515	197.94426	13.79151	-172.50262	-289.79987	26.32812	399.77438	119.50724	22.64805	414.89069	29.45383	1141.40491	-602.35144	-56.75206	577.47510	-352.13361	100.15855	576.45905	-330.43942	-176.83047	586.50055	585.01929	-26.85607	576.91425	605.15485	
